<svg xmlns="http://www.w3.org/2000/svg" xmlns:xlink="http://www.w3.org/1999/xlink" x="0px" y="0px"
	 viewBox="0 0 152 85.9" style="enable-background:new 0 0 152 85.9;" xml:space="preserve">
<style type="text/css"> .logo-light { fill:#FFFFFF; } </style>
	<path class="logo-light" d="M13.6,11.9l-0.8,23.8c3.5-0.2,7.1-0.2,9.6,0.4c0,0,1.7,2.3-2,2.4c0,0-3.6,0.1-7.7,0.4l-0.8,26.9
		c-5.7-0.3-6-3.9-6-3.9c-0.5-4.6-0.3-13.2,0.2-22c-0.6,0.1-1.1,0.3-1.5,0.4c0,0-5.2,0.4-2.8-3.3c0,0,1.8-0.3,4.5-0.7
		c0.7-12.3,1.8-23.8,1.8-23.8c-5-1.5-2.4-3.9-2.4-3.9C9.1,6.8,26,7.2,26,7.2c5.5,0.5,4,4.7,4,4.7C22.2,10,13.6,11.9,13.6,11.9z"/>
	<path class="logo-light" d="M45.3,55.1c-0.7-0.7-1.6-2.9-1.6-2.9c-1.9-6.7-0.5-22.6-0.5-22.6c0.1-1.5-2.8-0.9-4.2-0.9
		c-1.4,0-1.7,3.3-1.7,3.3l-4-0.2C26.4,31.6,22.8,42,22.8,42c-3.2,13.6,4.6,14.7,4.6,14.7c6.2-0.2,9.9-9.1,9.9-9.1
		c0.1,8.8,5,10.2,5,10.2C45.7,58.2,45.3,55.1,45.3,55.1L45.3,55.1z M29.1,51.3C25.7,54,27.7,39,31.3,36.5c0,0,1.9-2.3,4.6-1.8
		C35.9,34.7,32.6,48.6,29.1,51.3z"/>
	<path class="logo-light" d="M138.7,55.1c-0.7-0.7-1.6-2.9-1.6-2.9c-1.9-6.7-0.5-22.6-0.5-22.6c0.1-1.5-2.8-0.9-4.2-0.9
		c-1.4,0-1.7,3.3-1.7,3.3l-4-0.2c-7-0.2-10.5,10.2-10.5,10.2c-3.2,13.6,4.6,14.7,4.6,14.7c6.2-0.2,9.9-9.1,9.9-9.1
		c0.1,8.8,5,10.2,5,10.2C139.2,58.2,138.7,55.1,138.7,55.1L138.7,55.1z M122.6,51.3c-3.4,2.7-1.5-12.3,2.2-14.9c0,0,1.9-2.3,4.6-1.8
		C129.3,34.7,126,48.6,122.6,51.3z"/>
	<path class="logo-light" d="M46.6,28.6c0,0,0.9,23.8,0.6,29.1c0,0,1.6,3.6,6.3,0.8c0,0-1.4-16.4,5.7-24c0,0,3.8-2.8,3.1,2.9l0.1,1.8
		c0,0,3.8,2.2,5.6-0.1c0,0,1.2-10.9-6.1-10.6c0,0-5.8-0.3-9.5,6.9v-6.9C52.4,28.6,49.7,25.9,46.6,28.6L46.6,28.6z"/>
	<path class="logo-light" d="M76,31.3c0,0-2.9,18.7,1.7,23.6c0,0,4.3-1.6,9-17.7c0,0,0.7-8.3,0.4-12.2c0,0,0.4-1.8,3.2-1.9
		c0,0,3.1-0.5,3,2.7c0,0-1.2,24.3-3,37.4c0,0-0.5,19.8-11,21.9c0,0-4.9,0.9-9.3-5.7c0,0-4.7-7.9-1.4-9.8c0,0,3.6-1.2,4.2,2.4
		c0,0,1,7,5.4,9.3c0,0,3.3,0.2,5.8-15.2c0,0,0.9-8.4,0.7-12c0,0-3,4.9-7.7,4.8c0,0-7.2-0.2-7.7-11.2c0,0-0.2-16.2,2.9-16.6
		C75.3,30.9,76,31.4,76,31.3L76,31.3z"/>
	<path class="logo-light" d="M95.9,40.9c0,0-1.3-7.2,3.4-6.7c0,0,3.3-0.2,2.9,4c0,0-1.3,8.6-1.1,17.7c0,0,0.2,3.3-3.2,2.5
		C97.9,58.5,95.3,56.4,95.9,40.9z"/>
	<path class="logo-light" d="M97.2,25c0,0-2.7,4.7-1.1,8.1c0,0,4,2.2,4.7-3.6C101.5,23.6,97.2,25,97.2,25L97.2,25z"/>
	<path class="logo-light" d="M116.2,22.4l-3.2,0.2c-0.3,2.2-0.6,4.1-0.6,4.1c-1.7,7.4-1.7,34.7-1.7,34.7c-3,4.2-5.4,0-5.4,0
		c-0.5-10.2,1.5-35.7,1.7-38.6l-6.9,0.3c0,0-3.6-0.7,0.8-3l6.4-0.3c0.9-6.1,4.1-6.2,4.3-6.2c3.8-0.9,2.8,2.9,2.8,2.9
		c-0.3,0.7-0.5,1.8-0.8,3l5.8-0.3C119.3,19.3,121.1,22.6,116.2,22.4z"/>
	<path class="logo-light" d="M122.2,21.4c0,0,4.8-3.9,5.9-10.9c1.1-7-2.9-8.2-5.2-6.8c-2.3,1.4,0.2,5.6,0.1,10.2
		C122.9,16.8,122.2,21.4,122.2,21.4z"/>
	<path class="logo-light" d="M123.5,23.2c0,0,11.1-1.6,16.4-9.6c5.2-8,1-13.6-3-13c-4.1,0.6-3.6,9.3-6.4,14.6
		C127.7,20.5,123.5,23.2,123.5,23.2z"/>
	<path class="logo-light" d="M132.5,25.6c0,0,2.7-5.9,10.7-6.4c8-0.6,9,6.7,6.8,8.5c-3.5,3-6.3-1.1-10.3-2
		C135.6,24.7,132.5,25.6,132.5,25.6L132.5,25.6z"/>
</svg>
